<svg xmlns="http://www.w3.org/2000/svg" viewBox="0 0 448 512"><path fill="#d3d3d3" d="M0 0h448v512H0z"/><path d="M371 324.3V103.8c0-8.7-7-15.8-15.8-15.8H140c-34.8 0-63 28.2-63 63v210c0 34.8 28.2 63 63 63h215.3c8.7 0 15.8-7 15.8-15.8v-10.5c0-4.9-2.3-9.4-5.8-12.3-2.8-10.1-2.8-38.9 0-49 3.4-2.8 5.7-7.2 5.7-12.1zM161 175.9c0-2.2 1.8-3.9 3.9-3.9H304c2.2 0 3.9 1.8 3.9 3.9V189c0 2.2-1.8 3.9-3.9 3.9H164.9c-2.2 0-3.9-1.8-3.9-3.9v-13.1zm0 42c0-2.2 1.8-3.9 3.9-3.9H304c2.2 0 3.9 1.8 3.9 3.9V231c0 2.2-1.8 3.9-3.9 3.9H164.9c-2.2 0-3.9-1.8-3.9-3.9v-13.1zM327.3 382H140c-11.6 0-21-9.4-21-21s9.4-21 21-21h187.3c-1.3 11.2-1.3 30.8 0 42z" fill="#fff"/></svg>