<svg xmlns="http://www.w3.org/2000/svg" width="536.864" height="50.873"><path d="M39.244 1.969H11.417v.041a8.184 8.184 0 01.907 4.066 8.093 8.093 0 01-.907 4.046h27.827a6.046 6.046 0 001.53-4.078 6.046 6.046 0 00-1.53-4.075zM12.947 14.202h27.827v.042a8.179 8.179 0 00-.907 4.066 8.1 8.1 0 00.907 4.046H12.947a6.2 6.2 0 010-8.154zM0 20.826V1.969h.042a8.179 8.179 0 004.067.907 8.087 8.087 0 004.046-.907v18.857a6.046 6.046 0 01-4.078 1.53A6.046 6.046 0 010 20.826z" fill="#0096df"/><path d="M1.53 46.822h27.827v-.042a8.185 8.185 0 01-.907-4.067 8.1 8.1 0 01.907-4.046H1.53a6.2 6.2 0 000 8.156zM27.828 34.59H0v-.042a8.185 8.185 0 00.907-4.067A8.092 8.092 0 000 26.435h27.828a6.2 6.2 0 010 8.155zm12.949-6.625v18.853h-.042a8.176 8.176 0 00-4.067-.908 8.087 8.087 0 00-4.046.908V27.965a6.2 6.2 0 018.155 0z" fill="#008f8a"/><path d="M131.681 35.412h-4.451v-1.4h10.836v1.4h-4.474v11.316h-1.911zm14.81 9.125a13.383 13.383 0 00.152 2.187h-1.716l-.151-1.151h-.066a4.133 4.133 0 01-3.214 1.358c-2.128 0-3.214-1.3-3.214-2.62 0-2.206 2.258-3.413 6.319-3.393v-.189c0-.735-.239-2.111-2.39-2.093a5.649 5.649 0 00-2.757.679l-.435-1.113a7.622 7.622 0 013.475-.791c3.214 0 4 1.9 4 3.714zm-1.845-2.469c-2.084-.038-4.451.283-4.451 2.055a1.576 1.576 0 001.781 1.583 2.656 2.656 0 002.584-1.527 1.63 1.63 0 00.087-.528zm6.482-7.031a1.086 1.086 0 01-1.16 1.121 1.07 1.07 0 01-1.1-1.117 1.109 1.109 0 011.138-1.138 1.091 1.091 0 011.122 1.134zm-2.072 11.688v-9.126h1.911v9.125zm27.405-2.188a13.211 13.211 0 00.151 2.187h-1.715l-.154-1.151h-.064a4.131 4.131 0 01-3.215 1.358c-2.127 0-3.214-1.3-3.214-2.62 0-2.206 2.258-3.413 6.319-3.393v-.189c0-.735-.237-2.111-2.387-2.093a5.651 5.651 0 00-2.758.679l-.435-1.113a7.625 7.625 0 013.475-.791c3.215 0 4 1.9 4 3.714zm-1.847-2.469c-2.084-.038-4.451.283-4.451 2.055a1.576 1.576 0 001.781 1.583 2.658 2.658 0 002.585-1.527 1.668 1.668 0 00.086-.528zm4.411-4.469h1.747v1.508a4.04 4.04 0 013.484-1.7 3.537 3.537 0 013.714 3.884v5.429h-1.911v-5.255c0-1.471-.63-2.7-2.433-2.7a2.9 2.9 0 00-2.693 2.47v5.486h-1.913zm-13.062 0l-2.619 7.537-2.651-7.541h-1.432l-2.649 7.541-2.621-7.541h-1.571l3.171 9.124h1.737l2.649-7.353 2.649 7.353h1.737l3.171-9.124zm-115.001 9.13V34.018h2.085l7.2 10.557V34.018h1.7v12.711h-1.908l-7.33-10.693v10.693zm21.086-2.191a13.292 13.292 0 00.152 2.187h-1.716l-.151-1.151h-.066a4.133 4.133 0 01-3.214 1.358c-2.128 0-3.215-1.3-3.215-2.62 0-2.206 2.259-3.413 6.319-3.393v-.189c0-.735-.239-2.111-2.389-2.093a5.653 5.653 0 00-2.758.679l-.433-1.113a7.619 7.619 0 013.474-.791c3.215 0 4 1.9 4 3.714zm-1.846-2.47c-2.085-.038-4.451.283-4.451 2.055a1.575 1.575 0 001.781 1.583 2.658 2.658 0 002.583-1.522 1.649 1.649 0 00.086-.528zm6.71-6.655V37.6h2.735v1.263h-2.735v4.918c0 1.13.369 1.772 1.433 1.772a4.041 4.041 0 001.107-.114l.088 1.263a5.914 5.914 0 01-1.694.227 2.956 2.956 0 01-2.064-.7 3.239 3.239 0 01-.738-2.395v-4.971h-1.627V37.6h1.628v-2.187zm6.429-.377a1.078 1.078 0 01-1.151 1.108 1.062 1.062 0 01-1.087-1.108 1.1 1.1 0 011.13-1.127 1.084 1.084 0 011.108 1.127zm-2.065 11.688V37.6h1.911v9.125zm14.072-4.64c0 3.375-2.714 4.845-5.233 4.845-2.824 0-5.038-1.809-5.038-4.694 0-3.036 2.323-4.826 5.211-4.826 3.019.003 5.06 1.907 5.06 4.675zm-8.317.094a3.242 3.242 0 003.17 3.506 3.285 3.285 0 003.193-3.544 3.2 3.2 0 10-6.363.038zm29.122 2.36a13.3 13.3 0 00.151 2.187h-1.715l-.153-1.151h-.065a4.131 4.131 0 01-3.214 1.358c-2.127 0-3.215-1.3-3.215-2.62 0-2.206 2.259-3.413 6.32-3.393v-.189c0-.735-.239-2.111-2.389-2.093a5.653 5.653 0 00-2.758.679l-.435-1.113a7.628 7.628 0 013.476-.791c3.214 0 4 1.9 4 3.714zm-1.847-2.469c-2.084-.038-4.451.283-4.451 2.055a1.575 1.575 0 001.78 1.583 2.658 2.658 0 002.584-1.523 1.668 1.668 0 00.086-.528zm4.409-8.73h1.911v13.386h-1.911zM97.241 37.6h1.744v1.508a4.04 4.04 0 013.484-1.7 3.535 3.535 0 013.713 3.884v5.429h-1.911v-5.255c0-1.471-.629-2.7-2.431-2.7a2.894 2.894 0 00-2.693 2.47v5.486h-1.911zm97.674-3.582h1.91v11.33h6.255v1.381h-8.166zm11.586 1.019a1.086 1.086 0 01-1.163 1.121 1.07 1.07 0 01-1.1-1.117 1.109 1.109 0 011.138-1.138 1.091 1.091 0 011.125 1.134zm-2.072 11.688v-9.126h1.909v9.125zm4.561-13.386h1.887v5.732a4.541 4.541 0 013.626-1.659 4.334 4.334 0 014.453 4.637 4.624 4.624 0 01-4.733 4.883 3.953 3.953 0 01-3.483-1.7v1.49h-1.749zm1.887 9.728a1.843 1.843 0 00.087.6 2.882 2.882 0 002.866 1.942c2.021 0 3.192-1.413 3.192-3.506a3.109 3.109 0 00-3.148-3.394 3.007 3.007 0 00-2.888 2.037 2.262 2.262 0 00-.11.7zm23.909 1.471a13.379 13.379 0 00.152 2.187h-1.716l-.146-1.151h-.066a4.134 4.134 0 01-3.214 1.358c-2.128 0-3.214-1.3-3.214-2.62 0-2.206 2.259-3.413 6.319-3.393v-.189c0-.735-.239-2.111-2.389-2.093a5.65 5.65 0 00-2.757.679l-.435-1.113a7.622 7.622 0 013.475-.791c3.214 0 4 1.9 4 3.714zm-1.845-2.469c-2.086-.038-4.452.283-4.452 2.055a1.575 1.575 0 001.781 1.583 2.655 2.655 0 002.583-1.527 1.633 1.633 0 00.088-.528zm3.85-4.469h1.809v1.809a3.988 3.988 0 013.423-1.96v1.564c-1.8 0-3.277 1.38-3.277 2.583v5.128h-1.955zm7.513 0l3.378 7.616 3.385-7.616h1.525l-2.866 6.5c-1.368 3.13-2.3 4.713-3.6 5.712a5.779 5.779 0 01-2.346 1.057l-.477-1.376a5.329 5.329 0 001.672-.811 4.792 4.792 0 001.693-2.017c.062-.181-3.951-9.069-3.951-9.069zm-23.652 0h1.809v1.809a3.992 3.992 0 013.424-1.96v1.564c-1.8 0-3.279 1.38-3.279 2.583v5.128h-1.954zM104.305 24.721h-6.846l3.176-17.249h-2.8l-3.176 17.25h-4.684L86.796 7.473h-2.8l3.176 17.251h-6.843v1.465h23.972zm0-20.2H93.98V2.214h-3.33v2.313H80.33v1.469h23.972zm98.064 14.328a5.78 5.78 0 000 7.584h20.621a5.78 5.78 0 000-7.584zm18.964 6.113h-17.307a4.127 4.127 0 01-.6-1.585h18.517a4.155 4.155 0 01-.611 1.585zm-17.915-3.052a4.131 4.131 0 01.608-1.606h17.306a4.133 4.133 0 01.609 1.606zm19.191-11.079a5.551 5.551 0 001.372-3.06h.935V6.302h-.935a5.5 5.5 0 00-1.376-3.038h-8.7v-1.3h-2.448v1.3h-10.1V4.71h10.1V6.3h-11.001v1.471h11.009V9.36h-10.1v1.468h10.1v1.682h-10.1v1.468h10.1v1.686h-11.009v1.469h24.465v-1.464h-11.009v-1.687h10.1V12.51h-10.1v-1.681zm-8.7-6.117h7.035a4.107 4.107 0 01.608 1.59h-7.644zm0 3.059h7.644a4.108 4.108 0 01-.608 1.589h-7.035zM231.5 2.588l-2.682 4.735h2.411l1.718-3.037h4.054l1.717 3.037h2.411l-2.679-4.735zm12.455 2.5h7.371v2.235h2.448v-3.7h-4.806V2.214h-2.65v1.408h-4.807v3.7h2.447zm8.474 12.651h-8.011v-2.227h7.475a5.055 5.055 0 001.348-3.592 5.281 5.281 0 00-1.348-3.576H242v17.845h10.428a6.4 6.4 0 000-8.448zm-8.011-7.928h5.741a3.706 3.706 0 01.633 2.108 4.386 4.386 0 01-.633 2.125h-5.741zm6.4 14.91h-6.4v-5.513h6.4a5.669 5.669 0 01.747 2.745 6.261 6.261 0 01-.747 2.768zm-13.937-4.232l.548 1.764-5.063 2.323v-5.314h5.823a1.886 1.886 0 002.036-1.813v-9.11h-3.536V6.632h-3.235v1.707h-3.536v16.028c0 1.323.671 1.749 1.589 1.816a3.88 3.88 0 001.829-.44c1.672-.758 3.657-1.676 4.533-2.081l.786 2.527h2.274l-1.775-5.7zm-4.515-10.682h5.411v3.226h-5.411zm0 4.692h5.411v2.194s.02 1.1-.976 1.1h-4.435zm-88.037.136h1.714v-1.713h-1.714zm4.652 0h1.713v-1.713h-1.716zm-4.616-3.263h2.292v4.052h1.708v-4.052h1.373c1.143 0 1.035-.839.855-1.281l-.7-1.689h-1.588l.906 1.748h-2.318l3.319-5.61h-1.8l-1.534 2.59-.925-.65 2.668-4.511h-1.926l-2.721 4.6 2.263 1.64zm-.61-2.989l-2.777-5.379h-2.351l2.771 5.379zm0 7.041l-2.777-5.379h-2.351l2.771 5.379zm4.277 6.387v-1.206h16a3.2 3.2 0 000-4.133h-18.868v1.464h17.332a1.582 1.582 0 010 1.206h-16.535v4.139h16.862a1.917 1.917 0 01.2.849 1.863 1.863 0 01-.2.837h-18.4v1.468h19.9a3.832 3.832 0 00.881-2.305 3.385 3.385 0 00-.881-2.317zm11.623-7.177h1.712v-1.712h-1.712zm.034-3.263h2.289v4.052h1.709v-4.051h1.372c1.142 0 1.034-.839.856-1.281l-.7-1.689h-1.589l.9 1.748h-2.315l3.316-5.61h-1.8l-1.534 2.59-.922-.65 2.668-4.511h-1.921l-2.721 4.6 2.263 1.64zm4.616 3.263h1.714v-1.712h-1.714zm-5.038-11.246h-2.712V1.969h-2.937v1.419h-2.71V4.61h8.359zm-8.034 6.608v3.791a1.514 1.514 0 001.614 1.638h4.48a1.514 1.514 0 001.612-1.638V9.995h-1.713v.924h-4.281v-.924zm5.993 2.147v2.058h-4.281v-2.058zm1.713-4.178h-7.706v1.222h7.706zm0-2.289h-7.706v1.222h7.706zm-16.644 10.826l-3.664 9.932h2.3l3.667-9.932zm-19.281 7.073h9.807V22.11h-9.807v-1.394h5.747a1.514 1.514 0 001.614-1.637V17.61h.735v-1.47h-18.594v1.47h.733v1.467a1.514 1.514 0 001.613 1.637h5.705v1.396h-9.765v1.47h9.765v1.388H109.98v1.47h23.662v-1.47h-10.628zm-7.563-4.082V17.61h12.722v1.881zm7.563-16.209V1.969h-2.446v1.316h-11.111v1.467h11.111v1.135h-10.036v1.469h22.561V5.887h-10.079V4.752h11.154V3.285zm-13.557 17.432h2.2v-5.869h20.307v5.869h2.2v-7.339h-24.707zm23.636-8.418a3.886 3.886 0 01-.436-1.942 3.925 3.925 0 01.436-1.951v-.021h-22.561v.026a3.918 3.918 0 01.435 1.951 3.879 3.879 0 01-.435 1.942zm-2.588-2.446a1.188 1.188 0 00-.092.5 1.107 1.107 0 00.09.475h-17.382a1.085 1.085 0 00.091-.475 1.153 1.153 0 00-.093-.5zM50.968 2.214l-.006 23.975h22.433a1.89 1.89 0 002.032-1.813V2.214zm2.447 1.47h11.563q.036 1.488.183 2.909H53.414zm10.81 21.035H53.414v-2.044H64.96zm-10.811-3.526V8.061h11.925a38.462 38.462 0 002.014 7.955l-1.861 5.177zm18.235 3.526h-5.332l2.155-6.009a28.806 28.806 0 003.612 5.966 2.063 2.063 0 01-.435.043zm1.331-2.21a35.4 35.4 0 01-3.464-6.688l2.252-6.229h-2.093l-1.181 3.269a34.7 34.7 0 01-1.077-4.8h5.563zm0-15.916h-1.888V4.637h-1.957v1.956h-1.9q-.149-1.429-.163-2.909h5.911zm-18.045 11.21a1.886 1.886 0 002.03 1.812h4.937a1.886 1.886 0 002.03-1.812V9.83h-9zm2.212-.754v-5.752h4.572v5.752s.02 1.1-.973 1.1H58.12c-.995 0-.973-1.1-.973-1.1zm130.76 2.351v-3.055h-9.514v4.694h7.483a1.789 1.789 0 002.031-1.639zm-2.446-.584c0 .427-.1.754-.769.754h-3.856v-1.76h4.621zm6.066 2.914v-7.975h-16.751v9.788h14.623c1.676 0 2.128-.989 2.128-1.813zm-2.447-.607a.878.878 0 01-.972.95H177.22v-6.85h11.859zM170.925 1.969v24.465h22.433a1.891 1.891 0 002.031-1.817V1.969zm22 21.892c0 .5-.341 1.1-1.331 1.1l-18.225.006v-12.5h19.556zm0-12.874h-8.482V9.555h7.564a5.316 5.316 0 01-.436-2.306 5.378 5.378 0 01.436-2.318V4.91h-17.714v.025a5.393 5.393 0 01.435 2.318 5.33 5.33 0 01-.435 2.306h7.6v1.432h-8.523V3.443h19.556zM176.879 6.65h12.544a1.633 1.633 0 00-.092.6 1.527 1.527 0 00.09.563h-12.54a1.478 1.478 0 00.09-.563 1.6 1.6 0 00-.092-.6z" fill="#1a1a1a"/><path d="M528.789 19.775c.311-.576.518-1.247.7-1.241a3.057 3.057 0 002.174-.7 8.7 8.7 0 002.866-5.05 1.707 1.707 0 00-.564-1.407 4.578 4.578 0 00-2.289-.6 8.73 8.73 0 00-2.256.667c-.339-1.311.392-1.387 1.294-1.369a6.75 6.75 0 001.4-.263c-.385-1.167-.793-2.209-2.086-2.5-.743-.168-1.488-.328-2.231-.492l.074-.392c.469-.093.935-.206 1.408-.274 1.535-.223 3.08-.392 4.6-.672.277-.05.709-.561.67-.793a2.582 2.582 0 00-2.538-1.545c-1.463.37-2.92.765-4.415 1.158-.05-2.016-1.709-3.572-4.831-3.942.48 1.667.687 3.323 2.674 4.153l-8.331 2.629a8.511 8.511 0 011.146 1.062 1.722 1.722 0 002.444.52c1.279-.569 2.616-1.017 3.943-1.474a4.952 4.952 0 011.132-.12 3.636 3.636 0 01.008 1.446c-.155.354-.672.589-1.073.789-.49.243-1.027.395-1.8.682 1.167.713 2.115 1.245 2.994 1.873.149.106.107.683-.038.931-.163.279-.545.431-.856.654 1.545.775 1.531.926-.139 2.261 1.194 1.277 1.119 1.8-.4 2.366.122-2.26.074-4.443-2.738-5.216a8.938 8.938 0 001.046 5.683c.3.532 1.351.724 2.1.9a3.527 3.527 0 001.351-.238c.3 1.008-.022 1.3-.828 1.529-2.2.636-4.359 1.416-6.571 2.15 1.454 2.218 1.707 2.279 3.954 1.1.48-.252.964-.5 1.458-.722.512-.234 1.038-.437 1.758-.737a2.832 2.832 0 01.339 1.044c-.108 3 .721 5.821 1.532 8.843.18-.339.327-.494.342-.661.248-2.775.512-5.549.7-8.329.1-1.5.333-1.816 1.846-1.782a29.482 29.482 0 003.793.151 7.869 7.869 0 002.317-1.088v-.227c-2.362-2.293-5.119-1.201-8.079-.757zm2.935-7.99l.337.345-2.168 4.549-.494-.176c-.746-1.171 1-1.287.986-2.2l-1.821-.757z"/><path d="M520.501 9.286c-2 3.231-3.833 6.351-5.837 9.355-1.573 2.358-3.367 4.571-5.051 6.857a1.472 1.472 0 00-.376.812 2.285 2.285 0 00.413 1.084c.073.106.541.1.7-.026a20.494 20.494 0 003.282-2.74 54.8 54.8 0 004.268-5.9c1.513-2.4 2.827-4.927 4.379-7.666zm-12.013 4.993c-1.28-.809-2.552-1.631-3.828-2.448l-.108.239 1.18 2.355-3.223.821c.079-.865.15-1.571.209-2.278.253-3.046.428-6.1.78-9.135.241-2.083-.109-2.927-1.949-3.446a6.4 6.4 0 00-1.733-.208 1.026 1.026 0 00-.795.386c-.113.223.026.6.121.893a10.506 10.506 0 01.805 2.351c.175 2.468.183 4.947.274 7.421.052 1.414.164 2.826.182 4.239a.984.984 0 01-.52.705c-1.713.767-3.449 1.484-5.178 2.216a8.851 8.851 0 013.69-3.623c.552-.3.87-.479.341-1.163a4.757 4.757 0 00-3.122-1.856 8.174 8.174 0 011.951-.689c.681-.177 1.685-.156 1.645-1.057-.028-.62-.638-1.248-1.082-1.8a1.369 1.369 0 00-.93-.374c-1.206-.043-2.414-.018-3.956-.018l2.085 2.609c-.2.211-.4.438-.616.647-1.072 1.032-1.08 1.846-.183 3.094a1.391 1.391 0 010 1.188 8.067 8.067 0 01-1.04 1.362 6.678 6.678 0 00-1.368 1.839 6.506 6.506 0 00-.035 2.585 1.144 1.144 0 00.817.717c.313.04.678-.293 1.015-.473 1.808-.965 3.625-1.913 5.416-2.909.748-.416 1.024-.179 1.074.582.089 1.389.228 2.777.262 4.167.046 1.883.011 3.768.011 5.685l-.616-.076c-.079 1.081.958 2.663 2.49 3.815h.234c1.025-3.61.13-7.223.025-10.836a25.526 25.526 0 01.028-4.272c.159-1.118 1.431-.832 2.223-1.125 1.333-.494 2.686-.937 4.03-1.4v-.464a4.211 4.211 0 01-.606-.266z"/><path d="M490.915 16.36a5.778 5.778 0 00-2.21-.841c-.886-.079-.948-.628-.887-1.159.031-.277.5-.6.845-.729 1.355-.512 2.735-.955 4.166-1.444a3.384 3.384 0 00-4.078-1.8 15.615 15.615 0 011.942-1.108 6.431 6.431 0 002.7-2.524 1.573 1.573 0 00-.116-1.467 16.372 16.372 0 00-2.713-1.563 1.11 1.11 0 00-.382.551c-.041.421.193.928.032 1.267-.544 1.148-1.211 2.239-1.831 3.351l-.447-.133c.208-1.73.421-3.46.618-5.191a.972.972 0 00-.092-.58 2.741 2.741 0 00-3.044-.922c-.489.244-.89.609-.344 1.27a2.577 2.577 0 01-.685 4.23c-.218.139-.442.267-.66.4a12.1 12.1 0 00-1.456-1.122 1.343 1.343 0 00-1.1-.137c-.756.447-1.768 3.383-1.492 4.191a8.513 8.513 0 00.7 1.3c.213.383 2.019.975 2.346.688a5.544 5.544 0 001.11-1.347c.582-.992 1.086-2.03 1.624-3.048a22.257 22.257 0 01.057 2.874c.012.657-.262.877-.849 1.11-2.386.945-4.737 1.974-7.148 2.993a11.135 11.135 0 00.815 1.745c.491.713.994 1.248 1.947.338a13.444 13.444 0 011.867-1.281l.223.226a14.13 14.13 0 01-2.172 2.431c-1.557 1.1-1.019 2.564-.955 3.961a.958.958 0 00.757.212c.871-.406 1.7-.9 2.533-1.352 1.124 1.741 1.6 3.939 3.823 4.916 1.241-2.855.954-5.817 1.032-9.051.6.636.971 1.07 1.388 1.452a1.649 1.649 0 002.293-.048c.627-.801.592-2.235-.157-2.659zm-5.729 6.823l-2.364-1.758 2.364-3.062zm-201.167-9.91a5.316 5.316 0 00-1.052.41c-.976.683-1.918 1.413-2.893 2.1a.558.558 0 01-.529 0 8.04 8.04 0 01-2.335-3.033.6.6 0 00-.05-.124c-.608-.954-.632-1 .335-1.486a22.414 22.414 0 012.38-.913c.835-.3 1.676-.592 2.513-.889.609-.216 1.213-.451 1.829-.65a.984.984 0 00.577-1.1.667.667 0 01-.053-.32c.074-.537.191-1.07.242-1.609.107-1.118.188-2.239.264-3.359a1.426 1.426 0 00-.087-.588c-.156-.415-.348-.816-.592-1.375L288.142 0c-.074.307-.116.459-.146.612-.044.227-.2.54-.1.669.581.793-.025 1.471-.159 2.185-.1.544-.326 1.066-.41 1.61-.112.73-.142 1.474-.216 2.313a10.663 10.663 0 003.734-1.479 5.6 5.6 0 013.221 3.737c-.416.1-.845.2-1.271.316a7.767 7.767 0 01-.867.249 17.837 17.837 0 00-2.3.3 11.84 11.84 0 00-2.074.948 1.775 1.775 0 00-1.042 1.858 6.163 6.163 0 01-.223 1.414c1.09.329 2.142.594 3.151.97a9.612 9.612 0 011.525.9c1.067.649 2.132 1.3 3.2 1.946a21.849 21.849 0 001.95 1.118 8.846 8.846 0 001.505.424c.544.143 1.092.277 1.636.42.438.114.871.249 1.311.351a24.041 24.041 0 013.166.97 6.286 6.286 0 012.56 1.62 4.541 4.541 0 01.511 1.03c-.294.019-.447.031-.6.039l-6.853.348.03.42a8.394 8.394 0 01-2.272-.3c-.59-.268-.845-.836-1.46-1.035a5.511 5.511 0 01-1.566-1.1c-1.474-1.193-2.922-2.418-4.4-3.6-1.063-.851-2.162-1.657-3.33-2.547v4.68a3.737 3.737 0 002.263-.613 1.1 1.1 0 01.68-.156 5.721 5.721 0 011.32.311c.133.05.172.35.32.685a1.739 1.739 0 011 1.286c-.012.2-.311.474-.532.544-.713.223-1.449.372-2.179.538-.441.1-.888.179-1.331.269l-1.566.319.282 8.19c-.569.065-.917.213-1.208-.392-.209-.433-.816-.662-1.215-1.017a6.035 6.035 0 01-1.163-1.181 22.467 22.467 0 01-1.136-2.269c-.022-.046.024-.126.052-.25.982.6 1.45 1.879 2.856 1.982L284.501 25c-.681.238-1.259.4-1.8.64a1.714 1.714 0 01-1.942-.31c-.593-.552-1.215-1.074-1.765-1.556l-2.453 2.5-.254-.167c-.036.045-.086.078-.087.112a1.564 1.564 0 01-.933 1.325 8.528 8.528 0 00-1.916 1.466 2.828 2.828 0 01-2.126.951.563.563 0 01-.129-.045l-.3-1.189.568-1.371.393 1.3.259.062c.568-.709 1.112-1.438 1.708-2.122a20.855 20.855 0 003.022-3.825c.069-.131.229-.211.331-.328.981-1.143 1.988-2.265 2.926-3.441.716-.9 1.35-1.858 2.007-2.8.639-.912 1.262-1.839 2.009-2.929zm-4.434 10.1c1.76.08 3.154-1.144 4.819-1.253v-4.552a34.065 34.065 0 01-4.819 5.807zm40.746-11.927c.187-.075.291-.109.387-.157.346-.175.76-.577 1.022-.494a15.579 15.579 0 012.99 1.267 2.354 2.354 0 01.765 1.286c.083.251-.058.807-.229.869-.513.188-.555.837-1.288.934a2.816 2.816 0 00-2.15.855 1.2 1.2 0 01-.741.4c-1.124.167-1.045 1.113-1.046 1.813a17.583 17.583 0 00-.025 2.608c.079.549-.461 1.187-.754 1.857.327-.047.7-.1 1.067-.155a29.317 29.317 0 013.894-.558 9.357 9.357 0 012.7.645c.18.054.3.355.418.558a4.241 4.241 0 01.2.485c.239.552.48 1.1.713 1.639a7.1 7.1 0 01-1.625.814 5.875 5.875 0 01-1.665-.122 8.936 8.936 0 01-2.469-.287c-1.1-.454-2.124.036-3.176.013a8.168 8.168 0 00-2.549.649c-1.359.443-2.7.927-4.048 1.412a1.283 1.283 0 01-1.425-.3 4.694 4.694 0 01-.62-1.28c-.072-.159-.09-.37-.207-.477a.832.832 0 01-.175-1.152 1.332 1.332 0 011.209-.3 2.4 2.4 0 001.6.115 3.821 3.821 0 002.985-1.9 1.131 1.131 0 01.267-.3 3 3 0 001.193-2.818c-.028-.447 0-.9 0-1.432-.395.147-.833.171-.987.393-.627.9-1.492.506-2.229.412-.422-.054-.822-.517-1.169-.861-.456-.452-.61-1.1-1.248-1.5-.442-.272-.612-1.033-.818-1.605-.042-.116.267-.488.468-.542 1.714-.467 3.439-.893 5.164-1.318a.933.933 0 00.744-1.179c-.135-.794-.19-1.6-.264-2.407-.068-.739-.071-1.488-.194-2.217-.063-.378-.123-.852-.683-.955a.56.56 0 01-.32-.44.642.642 0 01.333-.457 2.185 2.185 0 012.109-.023 4.852 4.852 0 00.941.278 1.857 1.857 0 011.474 2.365c-.151.891-.372 1.769-.535 2.659a5.7 5.7 0 00-.004.91zm27.57 15.725c-.01-1.684.01-3.368-.012-5.051-.006-.388-.178-.774-.189-1.163a1.839 1.839 0 01.164-1.067c.731-.986 1.534-1.918 2.331-2.852.339-.4.377-.956-.033-1.17-.975-.507-1.93-1.163-3.073-.271a23.751 23.751 0 01-2.188 1.372l-.142-.034a2.806 2.806 0 01.334-.564c.592-.61 1.211-1.192 1.805-1.8.189-.193.291-.565.5-.627a19.166 19.166 0 012.479-.561c.679-.106 1.375-.1 2.2-.155l-.41-1.207-2.506-.361c.143-.207.28-.4.414-.6.308-.456.568-.934 1.23-.994a.537.537 0 00.333-.913c-.42-.524-.933-.973-1.44-1.489l-1.178 1.808c-.649-1.118-1.122-2.242-2.528-2.311.087-.769.157-1.486.254-2.2a6.115 6.115 0 01.223-1.01.8.8 0 00-.816-1.1 3.633 3.633 0 00-1.015.023 1.2 1.2 0 00-.527.514c.375.518.083.974 0 1.49-.177 1.051-.187 2.131-.28 3.2-.016.187-.04.449-.161.536a12.464 12.464 0 01-1.283.769c-.758.42-1.531.813-2.279 1.249-.259.151-.465.373-.166.713a12.545 12.545 0 001.327 1.541c.379.307 1.087.657 1.408.5.7-.349.706.092.87.481-1.331.577-2.656 1.159-3.986 1.726s-2.655 1.118-4.1 1.725a3.908 3.908 0 00.318.636 4.311 4.311 0 00.658.745c.292.264.623.675.936.674s.991.2 1.01-.554c0-.1.167-.208.279-.275q2.2-1.321 4.419-2.631a1.061 1.061 0 01-.281.62c-.314.34-.668.644-.973.991-.259.295-.452.647-.709.943-.349.4-.753.758-1.1 1.167-.53.634-1.013 1.307-1.545 1.939-.3.356-.777.605-.974 1-.559 1.134-1.733 1.564-2.547 2.4-.274.281-.863.649-.811.782a.579.579 0 01-.43.8c-.508.143-.431.4-.328.774a1.842 1.842 0 00.486-.006c.437-.127.864-.8 1.312 0a1.128 1.128 0 00.339-.142 12.763 12.763 0 002.633-2.4c1.2-1.4 2.445-2.769 3.672-4.15.395-.444.553-.062.833.182a2.374 2.374 0 001.021.448c.1.022.272-.3.409-.467.106-.13.206-.263.341-.436l1.007 1.512c-.285.2-.674.444-1.019.737-.754.639-1.44 1.371-2.243 1.936-.532.375-1.118.979-1.921.444-.094-.063-.292.026-.5.053a2.739 2.739 0 00.11.829 13.512 13.512 0 01.787 1.338c.2.56.786.283 1.041.632.251-.2.508-.4.75-.61.275-.24.538-.5.657-.607a3.969 3.969 0 01.309-.869 10.575 10.575 0 01.986-1.225c.476-.508.99-.979 1.488-1.466l.161.083v4.324l-2.941-.419c.195.7.44 1.419 1.408 1.585l-.165.351c1.093.358 2 1.209 3.231.986-.014-.173-.082-.341-.028-.445a4.784 4.784 0 00.354-2.356zm-1.2-16.606c.386-.2.738-.466 1.106-.7l.162.151-2.354 3.024c-.232-1.403.028-1.923 1.086-2.475zm-.715 8.851a1.06 1.06 0 01-1.331.711l-.232-.742a9.975 9.975 0 012.872-2.552c-.433.864-.884 1.715-1.304 2.583z"/><path d="M365.798 26.893a15.561 15.561 0 00-4.594-1.476 7.51 7.51 0 01-1.95-.515 31.975 31.975 0 01-2.786-1.801.9.9 0 01-.409-1.046 13.822 13.822 0 01.6-1.655c.189-.438.1-.752-.316-.938-.477-.211-.974-.379-1.463-.56-.22-.082-.445-.151-.667-.225l-.168.135a2.4 2.4 0 01.185 2.588l-3.072-1.15 1.06-1.706c.18-.023.529-.061.876-.117 1.361-.22 2.717-.48 4.083-.66 1.031-.136 2.078-.147 3.113-.261.805-.089.981-.444.581-1.037a.421.421 0 01-.038-.127 1.44 1.44 0 00-1.54-1.21.646.646 0 01-.326-.062 1.737 1.737 0 00-2.01.237 3.57 3.57 0 01-.443.283 16.285 16.285 0 00-1.616.8 2.779 2.779 0 01-1.572.576l1.55-3.274.219-.03c.456-.853.786-1.616 1.243-2.292.532-.786.548-1.832-.141-2.184a5.451 5.451 0 00-2.765-.748 2.95 2.95 0 00-.73.239c.285.407.667.7.672 1.008a7.39 7.39 0 01-.282 2.027 16.663 16.663 0 01-.881 2.508 9.258 9.258 0 01-1.616 3.164 2.56 2.56 0 00-.7 2.688c.151.443-.081.433-.261.548-.412.264-.841.5-1.335.794a3.971 3.971 0 001.034.408 6.481 6.481 0 012.923.975c.661.365.915.97.445 1.283-1.03.686-1.9 1.7-3.327 1.615.2.438.371.792.52 1.112.208-.06.434-.211.59-.157a2.992 2.992 0 001.712-.074 2.425 2.425 0 001.728-1.244c.14-.3.393-.543.786-.163.539.521 1.126.994 1.706 1.471.76.625 1.514 1.26 2.31 1.837a1.721 1.721 0 00.977.295c.514-.006 1.023-.168 1.539-.216a5.857 5.857 0 001.7-.109 6.788 6.788 0 012.539-.367 7.607 7.607 0 001.176-.237 4.447 4.447 0 00-.859-.95zm16.927-6.583c-.082-1.177-.306-2.345-.367-3.522a.91.91 0 00-.668-.942c-.454-.164-.9-.348-1.368-.473a1.859 1.859 0 00-2.178.335c-.765.424-1.532.842-2.294 1.273-.25.141-.482.314-.785.513l1.947.646 2.584-1.738c.5 2.3.153 4.393.292 6.669-1.167-1.425-2.34-.809-3.507-.323l-.134-.229 3.038-2.713c-.991-1.343-2.09-1.8-3.321-.042l-.237-1.341-2.606-1.544c-.1 1.016-.191 2.014-.289 3.01-.042.435-.094.867-.136 1.3-.09.951-.19 1.9-.259 2.856-.034.467 0 .938-.01 1.407-.022.975-.3 2 .4 2.854a10.832 10.832 0 001.338 1.41c.116.1.5-.129.769-.2a1.1 1.1 0 01.164-.022c.061-.5-.178-1.2.757-1.023.068.013.268-.213.248-.26-.267-.628-.051-1.309-.153-1.887-.132-.749.148-1.383-.03-2.215 1.536 1 2.745.008 4.062-.3v3.37l-2.656-.665 2.273 2.046-.583.324 2.083 1.943c.215-.508.287-1.091.532-1.177a1.193 1.193 0 00.8-1.135 20.547 20.547 0 00.268-2.538c.027-1.206-.059-2.414-.064-3.621.008-.683.141-1.37.09-2.046z"/><path d="M387.431 6.947c-.509-.411-1.051-.991-1.631-1.058a6.827 6.827 0 00-2.972.257c-.983.345-2.006.392-2.983.712a18.707 18.707 0 01-2.589.476 1.845 1.845 0 00-.762.177c-.763.58-1.713.333-2.545.642-.857.319-1.8.4-2.688.641-1.074.292-2.13.649-3.195.972-1.37.415-2.742.823-4.268 1.28.528.7.9 1.295 1.371 1.8.4.432 1.008.411 1.193-.028.413-.981 1.41-1.025 2.163-1.358a37.1 37.1 0 014.161-1.4c.692-.213 1.408-.347 2.232-.545a4.035 4.035 0 01-.508.785c-.745.663-1.534 1.276-2.275 1.942a4.433 4.433 0 01-1.887 1.3c-.134.032-.215.4-.273.618a3.445 3.445 0 00-.014.532c-.059.6-.156 1.2-.186 1.8-.031.632.146.725.713.484.681-.289 1.359-.593 2.061-.823a34.765 34.765 0 005.958-2.656c.544-.3 1.1-.581 1.647-.87l.092.149-.771.561c.316.408.477.918 1.159.8a1.415 1.415 0 01.82.234c.446.243.949.315 1.2-.11a2.622 2.622 0 00.391-1.576c-.071-.464-.552-.861-.846-1.291a2.246 2.246 0 00-1.685-.851c-.551-.082-1.1-.138-1.658-.2l-.078.23 1.185 1.353-4.456 1.447.137-.8a2.055 2.055 0 00.744-.089 7.591 7.591 0 001.083-.819c.267-.232.495-.511.741-.769-.387-.318.055-1.031-.62-1.247-.222-.071-.37-.372-.587-.605a2.768 2.768 0 01.6-.307 17.315 17.315 0 014.757-.624c.207.016.422-.134.634-.135a24.269 24.269 0 012.816.042 3.765 3.765 0 002.361-.151 5.5 5.5 0 00-.742-.922zm-13.366-1.583a5.79 5.79 0 00-1.044.756 1.894 1.894 0 001.97.167.9.9 0 01.331-.042 16.628 16.628 0 002.288-.243c.247-.058.612-.632.543-.841a3.685 3.685 0 00-1.624-2.38 4.939 4.939 0 00-3.419-.715c.421.816.806 1.542 1.172 2.279.192.382.412.757-.217 1.019zm41.795 10.405a11.182 11.182 0 01-1.259-1.65 3.937 3.937 0 00-2.6-1.872c-1.922-.594-3.935-.889-5.9-1.351-.251-.059-.445-.367-.665-.56.3-.251.064-.959.868-.825a2.335 2.335 0 001.546-.393 3.719 3.719 0 011.739-.93.585.585 0 00.313-.22c.6-.7 1.188-1.407 1.782-2.113a3.274 3.274 0 00-3.078-1.375 12.461 12.461 0 00-2.116.69c-.472.167-.936.359-1.4.54a.984.984 0 01.144-.577c.853-1.626.844-1.616-.464-2.933-.282-.283-.447-.388-.705 0-.626.946-1.277 1.873-1.909 2.816-.089.133-.082.34-.186.452-.343.37-.72.706-1.074 1.065-.6.611-1.158 1.273-1.809 1.824-.306.259-.334.388-.14.7.311.495.58 1.015.865 1.525.066.118.124.24.239.463a6.983 6.983 0 011.721-2.021c.652-.529 1.242-1.135 1.859-1.708l.266.175a6.15 6.15 0 01-.528 1.582 12.975 12.975 0 01-1.694 1.969 52.807 52.807 0 01-2.978 2.718c-.244.207-.68.187-1.108.291.058.29.013.841.263 1.155.757.946.084 1.873.048 2.783-.052 1.3-.416 2.588-.515 3.891a4.658 4.658 0 00.685 3.482c-.952-.017-1.666 1.185-2.576.061.056.28.167.465.2.665a1.561 1.561 0 002.464 1.19c.661-.355 1.281-.789 1.934-1.163.353-.2.737-.351 1.107-.524a13.474 13.474 0 01-1.905 2.143c-.671.614-1.266 1.4-2.331 1.347.428 1.26.594 1.438 1.484 1.291a3.583 3.583 0 002.132-1c1.006-1.058 2.066-2.065 3.163-3.153a17.445 17.445 0 011.887 2.1 5.613 5.613 0 002.785 2.506 1.045 1.045 0 001.363-.769 2.425 2.425 0 00-.427-2.025c-.451-.448-.693-1.128-1.413-1.292-.663-.151-1.315-.356-1.979-.5-.637-.139-1.285-.23-2-.354l1.183-1.6a17.036 17.036 0 001.637 1.462.9.9 0 00.838-.223 6.266 6.266 0 00.488-2.062c.015-1.484-.111-2.97-.186-4.455-.062-1.213-.143-2.424-.2-3.638a1.528 1.528 0 00-1.375-1.558c-.126-.019-.239-.108-.365-.14-.46-.118-.978-.415-1.371-.3a11.335 11.335 0 00-2.231 1.078c-.589.332-1.136.741-1.741 1.142a1.66 1.66 0 002.195.754c.829-.435 1.653-.88 2.529-1.347l.484 8.291h-1.365a2.835 2.835 0 00-2.847.384 10.828 10.828 0 01-1.637.647l.183-2.506c1.911 1.141 3.179-.112 4.667-.9-.406-.2-.732-.387-1.081-.516a1.672 1.672 0 00-1.938.165 2.47 2.47 0 01-.786.468 3.481 3.481 0 01-.751.126c-.018-.219-.042-.439-.051-.659a3.116 3.116 0 01.009-.681 4.262 4.262 0 01.257-.688c.893.824 1.387.85 2.271.321.781-.468 1.6-.873 2.409-1.311a1.89 1.89 0 00-2.4-.916c-.749.412-1.48.853-2.306 1.332 0-.444-.119-.836.023-1.058.342-.529-.087-.7-.339-.925-.369-.335-.782-.622-1.262-1a3.84 3.84 0 01.565-.283 6.565 6.565 0 001.6-.639 15.73 15.73 0 002.283-2.037 8.98 8.98 0 01.808-.737c.548-.4.606.355.954.444a.641.641 0 01.13.036c.982.47 1.945.985 2.949 1.4.869.358 1.78.616 2.681.89.543.166 1.11.249 1.65.422 1.017.324 2.02.691 3.034 1.026a.4.4 0 00.3-.078c.061-.028.051-.19.007-.247zm-10.78-7.885l2.175-.489.1.131-1.239 1.315z"/><path d="M396.255 15.393c.289-.432.5-.914.778-1.357.65-1.05 1.327-2.085 1.964-3.142.081-.134-.009-.371-.02-.56a1.387 1.387 0 00-.481.185c-.41.393-.757.856-1.187 1.22-.608.513-1.287.942-1.9 1.445a24.706 24.706 0 01-1.927 1.661c-.536.354-.978 1.192-1.959.705a8.436 8.436 0 01.4.911 3.871 3.871 0 001.861 2.134c.471.287.7.139.878-.374a12.836 12.836 0 01.829-1.9c.186-.349.543-.595.764-.928zm-.914-7.989c-.211.474-.5.91-.727 1.38a1.315 1.315 0 00-.078.616c0 .054.213.159.3.137.592-.143 1.171-.347 1.767-.464a10.458 10.458 0 011.242-.07.715.715 0 00.356-.11 1.209 1.209 0 00.116-1.7 8.285 8.285 0 00-4.259-2.2c.4.613.82 1.219 1.2 1.847a.712.712 0 01.083.564zm78.958 8.579a11.134 11.134 0 01-1.259-1.649 3.936 3.936 0 00-2.6-1.872c-1.922-.594-3.935-.889-5.9-1.351-.251-.059-.445-.367-.665-.56.3-.251.064-.959.868-.825a2.335 2.335 0 001.546-.393 3.713 3.713 0 011.739-.93.582.582 0 00.313-.221c.6-.7 1.188-1.406 1.782-2.112a3.274 3.274 0 00-3.078-1.375 12.46 12.46 0 00-2.116.69c-.472.167-.936.359-1.4.54a.983.983 0 01.144-.577c.853-1.626.844-1.616-.464-2.933-.282-.283-.447-.388-.7 0-.627.945-1.278 1.873-1.909 2.816-.089.133-.082.34-.186.452-.343.37-.72.706-1.074 1.065-.6.61-1.158 1.273-1.809 1.824-.306.259-.334.388-.14.7.311.495.58 1.015.865 1.525.066.118.124.239.239.463a6.982 6.982 0 011.721-2.021c.652-.529 1.242-1.135 1.859-1.708l.266.175a6.151 6.151 0 01-.528 1.582 12.971 12.971 0 01-1.694 1.969 52.463 52.463 0 01-2.978 2.718c-.244.207-.68.187-1.108.291.059.29.013.841.263 1.155.757.946.084 1.873.048 2.783-.052 1.3-.416 2.588-.515 3.891a4.658 4.658 0 00.685 3.482c-.952-.017-1.666 1.185-2.576.061.056.28.167.465.205.664a1.561 1.561 0 002.464 1.191c.661-.355 1.281-.789 1.934-1.163.353-.2.737-.351 1.107-.525a13.447 13.447 0 01-1.905 2.144c-.671.613-1.266 1.4-2.331 1.347.428 1.259.594 1.438 1.484 1.291a3.583 3.583 0 002.132-1c1.006-1.058 2.066-2.065 3.164-3.153a17.508 17.508 0 011.886 2.1 5.613 5.613 0 002.785 2.519 1.045 1.045 0 001.363-.77 2.425 2.425 0 00-.427-2.025c-.451-.448-.693-1.127-1.413-1.291-.663-.151-1.315-.356-1.979-.5-.637-.139-1.285-.23-2-.354l1.183-1.6a17.145 17.145 0 001.637 1.462.9.9 0 00.838-.223 6.257 6.257 0 00.488-2.062c.015-1.484-.11-2.97-.186-4.455-.062-1.213-.143-2.425-.2-3.638a1.528 1.528 0 00-1.375-1.558c-.126-.019-.239-.108-.365-.14-.46-.118-.978-.415-1.371-.3a11.337 11.337 0 00-2.231 1.078c-.589.332-1.136.741-1.741 1.142a1.661 1.661 0 002.194.754c.829-.435 1.653-.88 2.529-1.347l.484 8.291h-1.365a2.833 2.833 0 00-2.847.384 10.91 10.91 0 01-1.636.647l.182-2.506c1.911 1.141 3.179-.112 4.667-.9-.406-.2-.732-.387-1.081-.516a1.673 1.673 0 00-1.938.164 2.472 2.472 0 01-.786.468 3.481 3.481 0 01-.751.126c-.018-.22-.042-.439-.051-.659a3.111 3.111 0 01.009-.681 4.262 4.262 0 01.257-.688c.893.824 1.388.85 2.271.321.781-.468 1.6-.873 2.409-1.311a1.891 1.891 0 00-2.4-.917c-.749.412-1.48.854-2.306 1.332 0-.443-.119-.835.023-1.057.342-.529-.087-.7-.339-.926-.369-.335-.781-.621-1.262-1a3.759 3.759 0 01.565-.283 6.566 6.566 0 001.6-.639 15.727 15.727 0 002.283-2.037 8.993 8.993 0 01.808-.737c.548-.4.606.355.954.443a.7.7 0 01.13.037c.982.469 1.945.985 2.949 1.4.869.358 1.78.616 2.681.89.543.166 1.11.249 1.65.422 1.017.324 2.02.69 3.034 1.026a.391.391 0 00.3-.078c.047-.039.042-.201-.002-.259zm-10.78-7.884l2.175-.489.1.131-1.232 1.315z"/><path d="M454.693 15.608c.289-.432.5-.914.779-1.357.649-1.05 1.326-2.085 1.963-3.142.081-.135-.009-.371-.02-.56a1.387 1.387 0 00-.481.185c-.41.393-.757.856-1.187 1.22-.608.513-1.286.941-1.9 1.445a24.689 24.689 0 01-1.927 1.661c-.536.354-.978 1.192-1.959.705a8.362 8.362 0 01.4.911 3.871 3.871 0 001.861 2.134c.471.287.7.139.878-.374a12.872 12.872 0 01.829-1.9c.186-.349.543-.597.764-.928zm-.914-7.989c-.211.474-.5.91-.727 1.38a1.314 1.314 0 00-.078.616c0 .054.214.159.3.136.592-.142 1.17-.346 1.767-.463a10.293 10.293 0 011.242-.07.715.715 0 00.356-.11 1.21 1.21 0 00.116-1.7 8.3 8.3 0 00-4.259-2.2c.4.614.82 1.22 1.2 1.848a.716.716 0 01.083.563zm-11.729 9.58c.033-.045.135-.051.206-.057.291-.026.582-.044.873-.065-.132-.291-.284-.576-.389-.876-.058-.167-.1-.493-.041-.52.532-.252.692-.608.346-1.153a1.014 1.014 0 001.25-.831c.267-.918.65-1.8.928-2.717a1.529 1.529 0 00-.339-1.627 5.629 5.629 0 00-2.157-1.241 1.875 1.875 0 00-1.563.034c-.789.339-1.574.7-2.387.969a1.2 1.2 0 01-.891-.165c-.439-.275-.792-.685-1.219-.984s-.812-.327-1.026.3c-.263.77-.552 1.532-.878 2.279-.8 1.829-.672 1.511-2.042.709-.037-.021-.054-.074-.062-.086a1.959 1.959 0 00.08-.38 3.74 3.74 0 00-1.777-2.439.459.459 0 00-.387.207c-.32.689-.639 1.383-.9 2.1-.438 1.206-.805 2.438-1.25 3.641-.495 1.341-1.034 2.666-1.571 3.992a47.79 47.79 0 01-1.043 2.428c-.307.653-.685 1.27-1 1.916-.283.57-.107 1.393-.934 1.67-.059.019-.066.226-.078.347-.148 1.4-1.185 1.954-2.319 2.371-.54.2-1.026 1.315-.681 1.789.327.448.7.861 1.086 1.33a16.118 16.118 0 002.138-1.991 18.294 18.294 0 001.288-1.444 51.476 51.476 0 002.093-3.982c.993-2.088 1.93-4.2 2.877-6.312.452-1.009.873-2.032 1.368-3.188.583 1.5 1.11 2.864 1.652 4.263l-1.907.885 2.323 1.487c.6-.305 1.175-.6 1.757-.882.688-.328 1.026-.1 1.058.676.018.422.116.842.12 1.263.016 1.43.006 2.859.006 4.36l-1.815-.231a10.912 10.912 0 002.07 2.108 6.712 6.712 0 001.6.652c.139-.4.276-.808.418-1.211.025-.07.087-.127.1-.2a8.467 8.467 0 00.523-3.042 21.225 21.225 0 01.14-2.994 1.753 1.753 0 00-.221-.922 15.078 15.078 0 00-1.023-1.341 3.347 3.347 0 001.09-.255c.782-.488 1.858.271 2.51-.64zm-7.03-.488c-.2-.76.078-1.014.932-1.274a24.308 24.308 0 003.191-1.317 2.288 2.288 0 00.76-.773c.243-.341.419-.7-.21-.907-.294-.1-.5-.448-.8-.553-1.2-.432-2.03.442-2.959.92a10.023 10.023 0 00-1.208.873c-.07-.316-.209-.574-.147-.768.074-.234.39-.616.477-.585.794.282 1.127-.286 1.445-.772.862-1.319.857-1.357 2.249-.624a1.378 1.378 0 001.8-.177 3.758 3.758 0 01.76-.42 15.289 15.289 0 01-.339 1.781c-.259.82-.592 1.617-.918 2.415a1.481 1.481 0 01-1.076 1.022c-1.336.326-2.636.766-3.957 1.159zm-.327-2.6l1.2.224.084.185-.91.62z"/><path d="M420.899 19.801c-.293.86-.871 1.572-.119 2.477.4.478.6 1.122 1.01 1.587a.823.823 0 001.307.019 2.953 2.953 0 00.628-1.167 10.188 10.188 0 00.9-2.5c.2-1.09.666-2.128.966-3.2.077-.276-.086-.612-.057-.911.058-.582.175-1.159.279-1.81l-3.476 5.845-.357-.151c.13-.457.239-.921.393-1.37.261-.764.511-1.536.839-2.272.229-.514-.047-1.484 1.065-1.283-.059-.2-.1-.322-.133-.449-.089-.372-.058-.844-.278-1.1-.817-.957-2-.965-3.134-1.017-.4-.018-.8.011-1.2.023-.143 0-.388-.014-.408.043a.568.568 0 00.014.48 7.57 7.57 0 001.648 1.589c.725.4 1.142.67.861 1.618-.347 1.155-.361 2.414-.748 3.549zm20.11-15.807c.055-.562-.819-.488-.468-1.086.007-.014-.138-.171-.21-.169a8.086 8.086 0 00-2.836.143c-2.019.861-3.926 1.989-6.025 3.086l2.985 2.463zm.394 16.348c.341.54.683 1.079 1.045 1.649l-1.769.548c.317.275.535.624.8.667a22.409 22.409 0 012.844.595 8.383 8.383 0 002.3.042c.31-1.987-2.836-4.045-5.22-3.501zm-5.274.658a12.159 12.159 0 00-1.373.713c-.769.526-.978.532-1.6-.175-.177-.2-.317-.438-.5-.7a15.353 15.353 0 00-1.319 2.161 6.091 6.091 0 00-.351 2.093c-.014.417.355.677.789.837a1.247 1.247 0 001.548-.615 9.222 9.222 0 01.923-1.492c.662-.886 1.365-1.742 2.051-2.611zM422.851 7.722a2.751 2.751 0 001.17.374c.463 0 .926-.175 1.39-.182.514-.007.969-.038 1.141-.621a1.488 1.488 0 00-.59-1.777c-1.2-.554-2.431-1.062-3.649-1.588l-.247.185c.3.628.558 1.283.917 1.877s.582 1.103-.132 1.732zM272.668 47.835V35.963h1.96v4.672h3.863v-4.672h1.96v11.872h-1.96v-5.19h-3.863v5.19zm9.363-4.421a5.223 5.223 0 01.5-2.3 3.7 3.7 0 011.313-1.558 3.294 3.294 0 011.821-.519 3.125 3.125 0 012.672 1.334 5.157 5.157 0 01.972 3.12 5.559 5.559 0 01-.506 2.4 3.811 3.811 0 01-1.327 1.611 3.231 3.231 0 01-1.8.539 3.3 3.3 0 01-2.608-1.2 5.086 5.086 0 01-1.037-3.427zm1.912.122a3.217 3.217 0 00.512 1.978 1.51 1.51 0 001.234.671 1.476 1.476 0 001.209-.674 3.3 3.3 0 00.5-1.99 3.2 3.2 0 00-.512-1.958 1.505 1.505 0 00-1.226-.674 1.488 1.488 0 00-1.214.674 3.252 3.252 0 00-.503 1.973zm6.689-4.301h1.717v1.175a3.448 3.448 0 011.013-1.033 2.2 2.2 0 011.19-.343 2.038 2.038 0 011.179.339 2.444 2.444 0 01.814 1.029 3.564 3.564 0 011.008-1.029 2.113 2.113 0 011.147-.339 2.2 2.2 0 011.243.344 2.143 2.143 0 01.794.985 5.352 5.352 0 01.271 1.97v5.5h-1.871v-4.919a4.217 4.217 0 00-.227-1.715.792.792 0 00-.761-.426 1.148 1.148 0 00-1 .6 4.809 4.809 0 00-.381 2.331v4.135h-1.87v-4.722a6.452 6.452 0 00-.154-1.808.794.794 0 00-.818-.536 1.2 1.2 0 00-.761.276 1.534 1.534 0 00-.5.806 7.229 7.229 0 00-.154 1.8v4.184h-1.871zm16.336 5.872l1.854.381a3.672 3.672 0 01-1.16 1.923 2.969 2.969 0 01-1.914.628 2.939 2.939 0 01-2.417-1.046 5.208 5.208 0 01-1.006-3.408 5.466 5.466 0 011.013-3.456 2.692 2.692 0 012.219-1.1 2.824 2.824 0 012.373 1.119 6.119 6.119 0 01.988 3.78l-.009.259h-4.672a2.579 2.579 0 00.459 1.585 1.324 1.324 0 001.068.561q.903.005 1.204-1.226zm.1-2.308a2.512 2.512 0 00-.432-1.518 1.186 1.186 0 00-1.96.02 2.372 2.372 0 00-.406 1.5zm3.366 5.036V35.963h1.87v11.872zm5.175-5.985l-1.692-.369a3.288 3.288 0 011.017-1.874 3.173 3.173 0 012.037-.571 3.934 3.934 0 011.805.331 1.968 1.968 0 01.891.9 5.508 5.508 0 01.267 2.08l-.016 2.659a11.342 11.342 0 00.089 1.665 5.784 5.784 0 00.332 1.163h-1.846l-.243-.939a3.477 3.477 0 01-1.025.854 2.467 2.467 0 01-1.163.287 2.218 2.218 0 01-1.685-.693 2.575 2.575 0 01-.656-1.845 2.862 2.862 0 01.267-1.274 2.181 2.181 0 01.753-.868 4.984 4.984 0 011.555-.576 8.874 8.874 0 001.806-.56 2.762 2.762 0 00-.1-.941.786.786 0 00-.372-.366 1.67 1.67 0 00-.765-.143 1.241 1.241 0 00-.789.227 1.633 1.633 0 00-.467.853zm2.494 1.855a9.27 9.27 0 01-1.109.341 2.573 2.573 0 00-1.134.5.981.981 0 00-.267.714 1.216 1.216 0 00.295.833.946.946 0 00.741.337 1.359 1.359 0 00.786-.272 1.446 1.446 0 00.538-.645 4.143 4.143 0 00.15-1.357zm10.092 4.131h-1.87v-4.395a9.23 9.23 0 00-.106-1.76 1.2 1.2 0 00-.393-.673 1 1 0 00-.652-.235 1.33 1.33 0 00-.85.3 1.607 1.607 0 00-.535.839 8.65 8.65 0 00-.154 2.019v3.9h-1.871v-8.6h1.733v1.255a3.409 3.409 0 011.041-1.093 2.358 2.358 0 011.283-.364 2.22 2.22 0 011.381.425 2.178 2.178 0 01.777 1.094 6.665 6.665 0 01.215 1.934zm8.359-.001h-1.733v-1.263a3.157 3.157 0 01-1.013 1.1 2.222 2.222 0 01-1.2.368 2.534 2.534 0 01-2.061-1.181 5.563 5.563 0 01-.879-3.371 5.442 5.442 0 01.857-3.331 2.571 2.571 0 012.111-1.123 2.149 2.149 0 011.1.3 3.112 3.112 0 01.942.9v-4.271h1.871zm-4.973-4.49a5.7 5.7 0 00.2 1.742 1.8 1.8 0 00.565.861 1.307 1.307 0 00.828.288 1.288 1.288 0 001.066-.666 3.593 3.593 0 00.452-2.006 3.946 3.946 0 00-.44-2.14 1.273 1.273 0 00-2.218-.012 3.37 3.37 0 00-.453 1.933zm10.617 4.49V35.963h7.224v2.008h-5.264v2.632h4.892v2h-4.892v3.223h5.443v2.009zm15.518 0h-1.733v-1.263a3.158 3.158 0 01-1.013 1.1 2.222 2.222 0 01-1.2.368 2.534 2.534 0 01-2.061-1.181 5.563 5.563 0 01-.879-3.371 5.442 5.442 0 01.857-3.331 2.571 2.571 0 012.111-1.123 2.15 2.15 0 011.1.3 3.113 3.113 0 01.942.9v-4.271h1.871zm-4.973-4.49a5.7 5.7 0 00.2 1.742 1.8 1.8 0 00.565.861 1.307 1.307 0 00.828.288 1.29 1.29 0 001.067-.666 3.6 3.6 0 00.452-2.006 3.945 3.945 0 00-.44-2.14 1.273 1.273 0 00-2.218-.012 3.37 3.37 0 00-.454 1.933zm11.442 4.49v-1.286a2.941 2.941 0 01-1.018 1.094 2.441 2.441 0 01-1.317.395 2.159 2.159 0 01-2.066-1.4 5.469 5.469 0 01-.271-1.954V39.23h1.871v3.953a15.887 15.887 0 00.085 2.15 1.187 1.187 0 00.375.709 1.038 1.038 0 00.7.251 1.321 1.321 0 00.864-.328 1.532 1.532 0 00.521-.842 12.38 12.38 0 00.125-2.263v-3.63h1.871v8.6zm9.841-6.065l-1.839.4q-.2-1.352-1.279-1.352a1.317 1.317 0 00-1.116.584 3.467 3.467 0 00-.424 1.974 4.1 4.1 0 00.423 2.169 1.3 1.3 0 001.129.634 1.143 1.143 0 00.869-.361 2.438 2.438 0 00.488-1.275l1.838.38q-.567 3.11-3.264 3.11a2.819 2.819 0 01-2.559-1.314 5.782 5.782 0 01-.834-3.165 5.21 5.21 0 01.945-3.371 3.321 3.321 0 014.5-.5 3.773 3.773 0 011.123 2.087zm2.806.08l-1.7-.369a3.292 3.292 0 011.017-1.874 3.173 3.173 0 012.037-.571 3.934 3.934 0 011.805.331 1.968 1.968 0 01.891.9 5.5 5.5 0 01.267 2.08l-.016 2.659a11.373 11.373 0 00.088 1.665 5.78 5.78 0 00.332 1.163h-1.841l-.243-.939a3.476 3.476 0 01-1.025.854 2.467 2.467 0 01-1.163.287 2.218 2.218 0 01-1.685-.693 2.575 2.575 0 01-.656-1.845 2.851 2.851 0 01.267-1.274 2.173 2.173 0 01.753-.868 4.983 4.983 0 011.555-.576 8.875 8.875 0 001.806-.56 2.789 2.789 0 00-.1-.941.792.792 0 00-.373-.366 1.67 1.67 0 00-.765-.143 1.241 1.241 0 00-.789.227 1.633 1.633 0 00-.462.853zm2.494 1.855a9.222 9.222 0 01-1.109.341 2.572 2.572 0 00-1.134.5.981.981 0 00-.267.714 1.216 1.216 0 00.295.833.946.946 0 00.741.337 1.359 1.359 0 00.786-.272 1.446 1.446 0 00.538-.645 4.14 4.14 0 00.15-1.357zm6.898-4.47v1.814h-1.272v3.472a7.622 7.622 0 00.057 1.306.448.448 0 00.462.324 2.021 2.021 0 00.745-.219l.162 1.765a3.1 3.1 0 01-1.466.34 1.781 1.781 0 01-1.142-.34 1.674 1.674 0 01-.575-.982 10.027 10.027 0 01-.114-1.913v-3.753h-.863v-1.814h.857v-1.709l1.871-1.328v3.037zm1.303-1.166v-2.106h1.87v2.106zm0 9.767v-8.6h1.87v8.6zm3.345-4.422a5.223 5.223 0 01.5-2.3 3.707 3.707 0 011.312-1.558 3.3 3.3 0 011.822-.519 3.126 3.126 0 012.672 1.334 5.157 5.157 0 01.972 3.12 5.559 5.559 0 01-.506 2.4 3.819 3.819 0 01-1.328 1.611 3.226 3.226 0 01-1.8.539 3.3 3.3 0 01-2.608-1.2 5.086 5.086 0 01-1.036-3.427zm1.912.122a3.222 3.222 0 00.511 1.978 1.512 1.512 0 001.234.671 1.478 1.478 0 001.21-.674 3.3 3.3 0 00.5-1.99 3.192 3.192 0 00-.512-1.958 1.5 1.5 0 00-1.225-.674 1.487 1.487 0 00-1.214.674 3.252 3.252 0 00-.504 1.973zm13.249 4.3h-1.87v-4.395a9.227 9.227 0 00-.106-1.76 1.194 1.194 0 00-.393-.673 1 1 0 00-.652-.235 1.326 1.326 0 00-.849.3 1.6 1.6 0 00-.536.839 8.7 8.7 0 00-.154 2.019v3.9h-1.871v-8.6h1.733v1.255a3.4 3.4 0 011.042-1.093 2.353 2.353 0 011.283-.364 2.22 2.22 0 011.381.425 2.168 2.168 0 01.777 1.094 6.637 6.637 0 01.215 1.934zm5.694-.001V35.963h4.138a5.774 5.774 0 012.267.319 2.522 2.522 0 011.118 1.11 3.848 3.848 0 01.437 1.891 3.525 3.525 0 01-.669 2.243 2.975 2.975 0 01-1.9 1.07 4.918 4.918 0 011.044.991 14.028 14.028 0 011.126 1.932l1.183 2.316h-2.344l-1.424-2.584a16.874 16.874 0 00-1.042-1.753 1.538 1.538 0 00-.584-.486 2.667 2.667 0 00-.988-.134h-.4v4.957zm1.96-6.852h1.458a7.333 7.333 0 001.7-.117 1.087 1.087 0 00.592-.474 1.746 1.746 0 00.227-.948 1.633 1.633 0 00-.227-.911 1.154 1.154 0 00-.616-.473 7.7 7.7 0 00-1.595-.09h-1.539zm11.938 4.124l1.854.381a3.672 3.672 0 01-1.159 1.923 2.972 2.972 0 01-1.913.628 2.937 2.937 0 01-2.417-1.046 5.208 5.208 0 01-1.006-3.408 5.471 5.471 0 011.012-3.456 2.7 2.7 0 012.219-1.1 2.822 2.822 0 012.373 1.119 6.114 6.114 0 01.988 3.78l-.008.259h-4.673a2.573 2.573 0 00.46 1.585 1.322 1.322 0 001.068.561q.9.005 1.202-1.226zm.1-2.308a2.507 2.507 0 00-.432-1.518 1.186 1.186 0 00-1.96.02 2.372 2.372 0 00-.406 1.5zm2.71 2.591l1.876-.348a1.424 1.424 0 001.506 1.352 1.619 1.619 0 001-.259.814.814 0 00.332-.673.641.641 0 00-.147-.446 1.343 1.343 0 00-.609-.283 8.279 8.279 0 01-2.921-1.163 2.4 2.4 0 01-.777-1.891 2.524 2.524 0 01.761-1.924 3.089 3.089 0 012.211-.722 3.484 3.484 0 012.106.538 2.944 2.944 0 011.011 1.737l-1.757.4a1.223 1.223 0 00-1.329-1.036 1.809 1.809 0 00-.979.2.6.6 0 00-.291.516.557.557 0 00.267.471 7.41 7.41 0 001.66.588 4.554 4.554 0 012.122 1.066 2.418 2.418 0 01.552 1.661 2.713 2.713 0 01-.854 2.058 3.291 3.291 0 01-2.361.81 3.525 3.525 0 01-2.234-.676 3.254 3.254 0 01-1.145-1.976zm7.783-1.976a5.223 5.223 0 01.5-2.3 3.707 3.707 0 011.312-1.558 3.3 3.3 0 011.822-.519 3.126 3.126 0 012.672 1.334 5.163 5.163 0 01.972 3.12 5.547 5.547 0 01-.507 2.4 3.811 3.811 0 01-1.327 1.611 3.229 3.229 0 01-1.8.539 3.3 3.3 0 01-2.607-1.2 5.082 5.082 0 01-1.037-3.427zm1.912.122a3.222 3.222 0 00.511 1.978 1.512 1.512 0 001.234.671 1.478 1.478 0 001.21-.674 3.3 3.3 0 00.5-1.99 3.192 3.192 0 00-.512-1.958 1.5 1.5 0 00-1.225-.674 1.487 1.487 0 00-1.214.674 3.252 3.252 0 00-.504 1.973zm11.459 4.299v-1.286a2.941 2.941 0 01-1.018 1.094 2.441 2.441 0 01-1.317.395 2.159 2.159 0 01-2.066-1.4 5.47 5.47 0 01-.271-1.954V39.23h1.871v3.953a15.872 15.872 0 00.085 2.15 1.187 1.187 0 00.375.709 1.037 1.037 0 00.7.251 1.321 1.321 0 00.865-.328 1.532 1.532 0 00.521-.842 12.38 12.38 0 00.125-2.263v-3.63h1.871v8.6zm5.474.001h-1.87v-8.6h1.733v1.223a3.751 3.751 0 01.8-1.142 1.259 1.259 0 01.813-.283 2.037 2.037 0 011.224.428l-.583 1.985a1.426 1.426 0 00-.875-.373.954.954 0 00-.685.288 1.915 1.915 0 00-.425 1.042 19.251 19.251 0 00-.13 2.773zm9.656-6.066l-1.839.4q-.2-1.352-1.279-1.352a1.316 1.316 0 00-1.115.584 3.461 3.461 0 00-.424 1.974 4.1 4.1 0 00.423 2.169 1.3 1.3 0 001.129.634 1.142 1.142 0 00.869-.361 2.432 2.432 0 00.488-1.275l1.838.38q-.566 3.11-3.263 3.11a2.821 2.821 0 01-2.56-1.314 5.789 5.789 0 01-.834-3.165 5.21 5.21 0 01.946-3.371 3.321 3.321 0 014.5-.5 3.773 3.773 0 011.121 2.087zm5.507 3.337l1.854.381a3.677 3.677 0 01-1.159 1.923 2.972 2.972 0 01-1.913.628 2.937 2.937 0 01-2.417-1.046 5.208 5.208 0 01-1.006-3.408 5.471 5.471 0 011.012-3.456 2.694 2.694 0 012.219-1.1 2.822 2.822 0 012.373 1.119 6.114 6.114 0 01.988 3.78l-.008.259h-4.673a2.578 2.578 0 00.463 1.594 1.324 1.324 0 001.069.561q.896-.004 1.198-1.235zm.1-2.308a2.507 2.507 0 00-.432-1.518 1.186 1.186 0 00-1.96.02 2.372 2.372 0 00-.406 1.5zm7.149-6.836h3.584a5.323 5.323 0 012.05.3 3.413 3.413 0 011.275 1.025 5.253 5.253 0 01.914 1.87 10.454 10.454 0 01.332 2.859 9.206 9.206 0 01-.348 2.676 5.352 5.352 0 01-.882 1.8 3.421 3.421 0 01-1.29 1 4.841 4.841 0 01-1.946.335h-3.688zm1.96 2.008v7.857h1.473a3.823 3.823 0 001.373-.179 1.659 1.659 0 00.7-.538 3.1 3.1 0 00.449-1.137 9.442 9.442 0 00.179-2.046 9.314 9.314 0 00-.183-2.079 2.749 2.749 0 00-.567-1.2 1.8 1.8 0 00-.935-.574 7.743 7.743 0 00-1.6-.106zm9.248 3.879l-1.693-.372a3.291 3.291 0 011.016-1.874 3.176 3.176 0 012.037-.571 3.936 3.936 0 011.806.331 1.968 1.968 0 01.891.9 5.507 5.507 0 01.267 2.08l-.016 2.659a11.351 11.351 0 00.089 1.665 5.729 5.729 0 00.332 1.163h-1.846l-.243-.939a3.476 3.476 0 01-1.025.854 2.467 2.467 0 01-1.162.287 2.218 2.218 0 01-1.685-.693 2.575 2.575 0 01-.656-1.845 2.862 2.862 0 01.267-1.274 2.181 2.181 0 01.753-.868 4.983 4.983 0 011.555-.576 8.875 8.875 0 001.806-.56 2.76 2.76 0 00-.1-.941.786.786 0 00-.372-.366 1.67 1.67 0 00-.765-.143 1.24 1.24 0 00-.789.227 1.633 1.633 0 00-.467.856zm2.494 1.855a9.27 9.27 0 01-1.109.341 2.581 2.581 0 00-1.135.5.984.984 0 00-.267.714 1.216 1.216 0 00.295.833.946.946 0 00.741.337 1.361 1.361 0 00.786-.272 1.446 1.446 0 00.538-.645 4.14 4.14 0 00.15-1.357zm6.902-4.47v1.814h-1.272v3.472a7.621 7.621 0 00.057 1.306.448.448 0 00.461.324 2.012 2.012 0 00.745-.219l.163 1.765a3.1 3.1 0 01-1.466.34 1.779 1.779 0 01-1.142-.34 1.674 1.674 0 01-.575-.982 10.021 10.021 0 01-.115-1.913v-3.753h-.857v-1.814h.857v-1.709l1.871-1.328v3.037zm2.695 2.615l-1.693-.372a3.292 3.292 0 011.017-1.874 3.175 3.175 0 012.037-.571 3.938 3.938 0 011.806.331 1.97 1.97 0 01.89.9 5.5 5.5 0 01.267 2.08l-.016 2.659a11.342 11.342 0 00.089 1.665 5.779 5.779 0 00.331 1.163h-1.846l-.243-.939a3.474 3.474 0 01-1.024.854 2.47 2.47 0 01-1.163.287 2.218 2.218 0 01-1.685-.693 2.578 2.578 0 01-.656-1.845 2.851 2.851 0 01.267-1.274 2.173 2.173 0 01.753-.868 5 5 0 011.561-.572 8.882 8.882 0 001.805-.56 2.787 2.787 0 00-.1-.941.791.791 0 00-.373-.366 1.667 1.667 0 00-.765-.143 1.243 1.243 0 00-.789.227 1.633 1.633 0 00-.47.852zm2.494 1.855a9.221 9.221 0 01-1.109.341 2.578 2.578 0 00-1.134.5.981.981 0 00-.267.714 1.217 1.217 0 00.3.833.945.945 0 00.741.337 1.359 1.359 0 00.786-.272 1.453 1.453 0 00.539-.645 4.168 4.168 0 00.149-1.357zm3.589 4.13V35.963h1.872v4.267a3.1 3.1 0 01.941-.9 2.152 2.152 0 011.1-.3 2.573 2.573 0 012.107 1.127 5.428 5.428 0 01.861 3.327 5.552 5.552 0 01-.881 3.371 2.548 2.548 0 01-2.07 1.181 2.211 2.211 0 01-1.2-.376 3.111 3.111 0 01-1-1.09v1.265zm1.855-4.49a5.27 5.27 0 00.211 1.7 1.925 1.925 0 00.6.889 1.305 1.305 0 00.818.3 1.26 1.26 0 001.053-.645 3.721 3.721 0 00.437-2.043 3.913 3.913 0 00-.441-2.124 1.282 1.282 0 00-2.224-.02 3.35 3.35 0 00-.454 1.943zm7.937-1.495l-1.693-.372a3.3 3.3 0 011.017-1.874 3.175 3.175 0 012.037-.571 3.937 3.937 0 011.806.331 1.966 1.966 0 01.89.9 5.505 5.505 0 01.267 2.08l-.016 2.659a11.351 11.351 0 00.089 1.665 5.729 5.729 0 00.332 1.163h-1.847l-.243-.939a3.475 3.475 0 01-1.024.854 2.47 2.47 0 01-1.163.287 2.216 2.216 0 01-1.684-.693 2.575 2.575 0 01-.656-1.845 2.851 2.851 0 01.267-1.274 2.178 2.178 0 01.753-.868 5 5 0 011.556-.576 8.892 8.892 0 001.806-.56 2.783 2.783 0 00-.1-.941.788.788 0 00-.373-.366 1.665 1.665 0 00-.765-.143 1.243 1.243 0 00-.789.227 1.633 1.633 0 00-.467.856zm2.494 1.855a9.264 9.264 0 01-1.109.341 2.581 2.581 0 00-1.134.5.981.981 0 00-.267.714 1.217 1.217 0 00.3.833.945.945 0 00.741.337 1.358 1.358 0 00.785-.272 1.454 1.454 0 00.539-.645 4.165 4.165 0 00.15-1.357zm3.021 1.685l1.871-.348a1.424 1.424 0 001.506 1.352 1.621 1.621 0 001.006-.259.815.815 0 00.331-.673.645.645 0 00-.146-.446 1.347 1.347 0 00-.609-.283 8.278 8.278 0 01-2.921-1.163 2.4 2.4 0 01-.778-1.891 2.527 2.527 0 01.761-1.924 3.091 3.091 0 012.211-.722 3.479 3.479 0 012.106.538 2.945 2.945 0 011.012 1.737l-1.757.4a1.222 1.222 0 00-1.328-1.036 1.807 1.807 0 00-.979.2.6.6 0 00-.292.516.556.556 0 00.267.471 7.41 7.41 0 001.659.588 4.557 4.557 0 012.122 1.066 2.418 2.418 0 01.552 1.661 2.716 2.716 0 01-.854 2.058 3.293 3.293 0 01-2.362.81 3.527 3.527 0 01-2.235-.676 3.255 3.255 0 01-1.143-1.976zm12.319-.283l1.854.381a3.672 3.672 0 01-1.16 1.923 2.968 2.968 0 01-1.913.628 2.937 2.937 0 01-2.417-1.046 5.2 5.2 0 01-1.006-3.408 5.472 5.472 0 011.013-3.456 2.694 2.694 0 012.219-1.1 2.824 2.824 0 012.373 1.119 6.119 6.119 0 01.988 3.78l-.009.259h-4.672a2.578 2.578 0 00.459 1.585 1.324 1.324 0 001.069.561q.9.005 1.202-1.226zm.1-2.308a2.507 2.507 0 00-.432-1.518 1.186 1.186 0 00-1.96.02 2.372 2.372 0 00-.406 1.5z"/></svg>