<svg data-name="圖層 1" xmlns="http://www.w3.org/2000/svg" viewBox="0 0 342.28 61.08"><path d="M49 0H14.26v.05a10.27 10.27 0 011.13 5.08 10.19 10.19 0 01-1.13 5.06H49a7.57 7.57 0 001.91-5.1A7.54 7.54 0 0049 0zM16.17 15.28h34.76v.05a10.16 10.16 0 00-1.14 5.08 10 10 0 001.14 5.05H16.17a7.74 7.74 0 010-10.18zM0 23.55V0h.05a10.27 10.27 0 005.08 1.13A10.19 10.19 0 0010.19 0v23.55a7.57 7.57 0 01-5.1 1.91A7.54 7.54 0 010 23.55z" fill="#0096df"/><path d="M1.91 56h34.76a10.16 10.16 0 01-1.13-5.08 10 10 0 011.13-5H1.91a7.74 7.74 0 000 10.08zm32.85-15.26H0v-.05a10.27 10.27 0 001.13-5.08A10.15 10.15 0 000 30.56h34.76a7.74 7.74 0 010 10.18zm16.17-8.27V56a10.27 10.27 0 00-5.08-1.13A10.19 10.19 0 0040.74 56V32.47a7.75 7.75 0 0110.19 0z" fill="#008f8a"/><path d="M164.47 41.77h-5.56V40h13.54v1.74h-5.59V55.9h-2.39zM183 53.17a17.28 17.28 0 00.19 2.73H181l-.19-1.44h-.08a5.18 5.18 0 01-4 1.7c-2.66 0-4-1.63-4-3.27 0-2.76 2.82-4.27 7.89-4.24v-.24c0-.92-.3-2.63-3-2.61a7.11 7.11 0 00-3.45.85l-.54-1.39a9.53 9.53 0 014.34-1c4 0 5 2.38 5 4.64zm-2.3-3.08c-2.61-.05-5.56.35-5.56 2.56a2 2 0 002.22 2 3.32 3.32 0 003.23-1.91 2.07 2.07 0 00.11-.66zm8.06-8.79a1.36 1.36 0 01-1.45 1.4 1.34 1.34 0 01-1.37-1.4 1.39 1.39 0 011.43-1.42 1.36 1.36 0 011.39 1.42zm-2.59 14.6V44.5h2.39v11.4zm34.23-2.73a17.28 17.28 0 00.19 2.73h-2.14l-.19-1.44h-.08a5.15 5.15 0 01-4 1.7c-2.65 0-4-1.63-4-3.27 0-2.76 2.82-4.27 7.89-4.24v-.24c0-.92-.3-2.63-3-2.61a7.11 7.11 0 00-3.45.85l-.54-1.39a9.53 9.53 0 014.34-1c4 0 5 2.38 5 4.64zm-2.3-3.08c-2.61-.05-5.56.35-5.56 2.56a2 2 0 002.22 2 3.31 3.31 0 003.24-1.93 2.07 2.07 0 00.11-.66zm5.51-5.59h2.18v1.89a5 5 0 014.35-2.12c1.82 0 4.64.94 4.64 4.85v6.78h-2.39v-6.57c0-1.84-.79-3.37-3-3.37a3.62 3.62 0 00-3.39 3.09v6.85h-2.4zm-16.32 0l-3.27 9.42-3.31-9.42h-1.79l-3.31 9.42-3.27-9.42h-1.96l3.96 11.4h2.17l3.3-9.18 3.31 9.18h2.17l3.96-11.4h-1.96zM63.65 55.9V40h2.61l9 13.19V40h2.13v15.9H75l-9.16-13.35V55.9zM90 53.17a16.17 16.17 0 00.19 2.73H88l-.19-1.44h-.08a5.18 5.18 0 01-4 1.7c-2.66 0-4-1.63-4-3.27 0-2.76 2.82-4.27 7.89-4.24v-.24c0-.92-.3-2.63-3-2.61a7.08 7.08 0 00-3.45.85l-.54-1.39a9.46 9.46 0 014.34-1c4 0 5 2.38 5 4.64zm-2.31-3.08c-2.6-.05-5.56.35-5.56 2.56a2 2 0 002.23 2 3.32 3.32 0 003.23-1.91 2 2 0 00.1-.66zm8.38-8.32v2.73h3.41v1.58h-3.41v6.15c0 1.41.46 2.21 1.79 2.21a5.25 5.25 0 001.38-.14l.11 1.58a7.52 7.52 0 01-2.12.28 3.71 3.71 0 01-2.58-.87 4.05 4.05 0 01-.92-3v-6.21h-2V44.5h2v-2.73zm8.03-.47a1.35 1.35 0 01-1.44 1.39 1.33 1.33 0 01-1.36-1.39 1.4 1.4 0 112.8 0zm-2.58 14.6V44.5h2.38v11.4zm17.57-5.79c0 4.21-3.39 6-6.53 6-3.53 0-6.3-2.26-6.3-5.86 0-3.8 2.91-6 6.51-6 3.77.02 6.32 2.4 6.32 5.86zm-10.39.12c0 2.49 1.63 4.38 4 4.38s4-1.86 4-4.43c0-1.93-1.11-4.36-3.93-4.36s-4.07 2.26-4.07 4.41zm36.38 2.94a16.17 16.17 0 00.19 2.73h-2.15l-.19-1.44h-.08a5.14 5.14 0 01-4 1.7c-2.66 0-4-1.63-4-3.27 0-2.76 2.83-4.27 7.9-4.24v-.24c0-.92-.3-2.63-3-2.61a7.07 7.07 0 00-3.44.85l-.54-1.39a9.46 9.46 0 014.34-1c4 0 5 2.38 5 4.64zm-2.31-3.08c-2.6-.05-5.56.35-5.56 2.56a2 2 0 002.23 2 3.31 3.31 0 003.22-1.91 2.07 2.07 0 00.11-.66zm5.51-10.91h2.38V55.9h-2.38zm-26.82 5.32h2.18v1.89a5 5 0 014.36-2.12c1.82 0 4.64.94 4.64 4.85v6.78h-2.39v-6.57c0-1.84-.79-3.37-3-3.37a3.62 3.62 0 00-3.36 3.09v6.85h-2.39zM243.45 40h2.39v14.18h7.81v1.72h-10.2zm14.47 1.3a1.35 1.35 0 01-1.44 1.4 1.34 1.34 0 01-1.37-1.4 1.39 1.39 0 011.42-1.42 1.36 1.36 0 011.39 1.42zm-2.58 14.6V44.5h2.38v11.4zM261 39.18h2.36v7.16a5.67 5.67 0 014.53-2.07 5.41 5.41 0 015.56 5.79 5.78 5.78 0 01-5.91 6.1 5 5 0 01-4.32-2.16v1.9H261zm2.36 12.15a2.41 2.41 0 00.11.76 3.6 3.6 0 003.58 2.42c2.52 0 4-1.76 4-4.38 0-2.28-1.36-4.24-3.93-4.24a3.76 3.76 0 00-3.61 2.55 2.88 2.88 0 00-.14.87zm29.89 1.84a17.28 17.28 0 00.19 2.73h-2.14l-.19-1.44H291a5.14 5.14 0 01-4 1.7c-2.66 0-4-1.63-4-3.27 0-2.76 2.82-4.27 7.89-4.24v-.24c0-.92-.29-2.63-3-2.61a7 7 0 00-3.44.85l-.55-1.39a9.53 9.53 0 014.34-1c4 0 5 2.38 5 4.64zM291 50.09c-2.61-.05-5.56.35-5.56 2.56a2 2 0 002.22 2 3.31 3.31 0 003.23-1.91 2.07 2.07 0 00.11-.66zm4.76-5.59H298v2.26a5 5 0 014.27-2.44v2c-2.25 0-4.09 1.72-4.09 3.23v6.4h-2.44zm9.38 0l4.22 9.5 4.23-9.52h1.9l-3.58 8.13c-1.71 3.91-2.87 5.88-4.5 7.13a7.14 7.14 0 01-2.93 1.32l-.59-1.72a6.47 6.47 0 002.08-1 6 6 0 002.12-2.52c.08-.23-4.94-11.33-4.94-11.33zm-29.54 0h2.26v2.26a5 5 0 014.28-2.44v2c-2.25 0-4.1 1.72-4.1 3.23v6.4h-2.44zM130.28 28.42h-8.55l4-21.55h-3.5l-4 21.55h-5.85l-4-21.55h-3.49l4 21.55h-8.54v1.83h29.94zm0-25.23h-12.9V.31h-4.16v2.88h-12.89V5h30zm122.48 17.89a7.23 7.23 0 000 9.48h25.76a7.23 7.23 0 000-9.48zm23.69 7.64h-21.62a5.22 5.22 0 01-.75-2h23.13a5.24 5.24 0 01-.76 2zm-22.38-3.82a5.27 5.27 0 01.76-2h21.62a5.11 5.11 0 01.76 2zm24-13.83a7 7 0 001.71-3.82h1.17V5.41h-1.17a6.84 6.84 0 00-1.71-3.79h-10.89V0h-3.05v1.62h-12.62v1.81h12.62v2h-13.75v1.82h13.75v2h-12.62v1.84h12.62v2.1h-12.62V15h12.62v2.11h-13.75V19h30.55v-1.89h-13.75V15h12.62v-1.83h-12.62v-2.1zm-10.89-7.64H276a5.17 5.17 0 01.76 2h-9.55zm0 3.82h9.55a5.24 5.24 0 01-.76 2h-8.79zM289.15.77l-3.35 5.92h3l2.2-3.8h5l2.15 3.8h3L297.83.77zm15.56 3.13h9.2v2.79H317V2.06h-6V.31h-3.32v1.75h-6v4.63h3.06zm10.58 15.8h-10v-2.78h9.34a6.35 6.35 0 001.68-4.49A6.64 6.64 0 00314.63 8h-12.36v22.25h13a8 8 0 000-10.55zm-10-9.91h7.17a4.69 4.69 0 01.79 2.64 5.48 5.48 0 01-.79 2.65h-7.17zm8 18.63h-8v-6.89h8a7.06 7.06 0 01.94 3.43 7.78 7.78 0 01-.95 3.46zm-17.41-5.29l.69 2.21-6.33 2.9V21.6h7.27a2.36 2.36 0 002.55-2.26V8h-4.42V5.82h-4V8h-4.42v20c0 1.65.84 2.18 2 2.26a4.8 4.8 0 002.28-.55c2.09-.94 4.57-2.09 5.66-2.6l1 3.16H301l-2.22-7.12zm-5.65-13.34H297v4h-6.76zm0 5.86H297v2.74s0 1.37-1.22 1.37h-5.54zm-109.96.17h2.14v-2.14h-2.14zm5.81 0h2.14v-2.14h-2.14zm-5.77-4.08h2.87v5.07h2.13v-5.07H187c1.42 0 1.29-1 1.06-1.6L187.22 8h-2l1.13 2.19h-2.89l4.14-7h-2.25l-1.91 3.24-1.15-.82L185.63 0h-2.41l-3.4 5.75 2.83 2zM179.55 8l-3.46-6.72h-2.94L176.61 8zm0 8.8l-3.46-6.72h-2.94l3.46 6.72zm5.34 8v-1.5h20a4 4 0 000-5.16h-23.58v1.82H203a1.52 1.52 0 01.15.78 1.57 1.57 0 01-.15.73h-20.69v5.17h21.06a2.33 2.33 0 01.24 1.06 2.27 2.27 0 01-.24 1h-23v1.84h24.86a4.8 4.8 0 001.1-2.88 4.25 4.25 0 00-1.1-2.9zm14.52-9h2.14v-2.12h-2.14zm.05-4.08h2.86v5.07h2.13v-5.05h1.72c1.42 0 1.29-1 1.07-1.6-.12-.27-.88-2.11-.88-2.11h-2l1.13 2.19h-2.89l4.14-7h-2.24l-1.92 3.24-1.15-.82L204.77 0h-2.41L199 5.75l2.82 2zm5.76 4.08h2.14v-2.12h-2.14zm-6.29-14h-3.39V0h-3.67v1.77h-3.38V3.3h10.44zm-10 8.25v4.74a1.9 1.9 0 002 2h5.59a1.9 1.9 0 002-2V10h-2.14v1.16H191V10zm7.49 2.69v2.57H191v-2.6zm2.14-5.22h-9.63V9h9.63zm0-2.86h-9.63v1.5h9.63zm-20.83 13.49l-4.58 12.41H176l4.58-12.41zM153.65 27h12.25v-1.85h-12.25v-1.73h7.18a1.89 1.89 0 002-2.05v-1.83h.92V17.7h-23.21v1.84h.91v1.83a1.89 1.89 0 002 2.05h7.12v1.73H138.4V27h12.19v1.73h-13.22v1.84h29.56v-1.85h-13.28zm-9.45-5.1v-2.36h15.89v2.35zm9.45-20.25V0h-3.06v1.64h-13.88v1.84h13.88v1.41h-12.53v1.84h28.18V4.89h-12.59V3.48h13.93V1.64zm-16.94 21.77h2.76v-7.33h25.36v7.33h2.75v-9.17h-30.87zm29.53-10.52a4.81 4.81 0 01-.55-2.42 4.86 4.86 0 01.55-2.48h-28.18a4.87 4.87 0 01.54 2.44 4.82 4.82 0 01-.54 2.42zM163 9.85a1.5 1.5 0 00-.11.63 1.33 1.33 0 00.11.59h-21.71a1.35 1.35 0 00.12-.59 1.51 1.51 0 00-.12-.63zM63.66.31v29.94h28A2.36 2.36 0 0094.21 28V.31zm3.06 1.83h14.44c0 1.24.11 2.45.23 3.64H66.72zm13.5 26.27h-13.5v-2.55h14.42zM66.72 24V7.61h14.89a48.5 48.5 0 002.51 9.93L81.8 24zm22.77 4.4h-6.66l2.69-7.5A36.25 36.25 0 0090 28.36a3 3 0 01-.51.05zm1.66-2.76a44.26 44.26 0 01-4.32-8.35l2.81-7.78H87l-1.45 4.09a42.27 42.27 0 01-1.34-6h6.94zm0-19.87H88.8V3.33h-2.45v2.45H84c-.12-1.19-.19-2.41-.2-3.64h7.38zm-22.53 14A2.35 2.35 0 0071.15 22h6.17a2.35 2.35 0 002.53-2.26v-10H68.62zm2.76-.94v-7.18h5.71v7.19s0 1.37-1.22 1.37h-3.28c-1.24 0-1.21-1.37-1.21-1.37zm163.32 2.94V18h-11.88v5.86h9.34a2.24 2.24 0 002.54-2.09zm-3.06-.77c0 .53-.11.94-1 .94h-4.81v-2.15h5.77zm7.58 3.64v-10H218.3V27h18.26c2.1 0 2.66-1.29 2.66-2.32zm-3.06-.76a1.1 1.1 0 01-1.16 1.23h-13.6v-8.56h14.81zM213.49 0v30.56h28a2.37 2.37 0 002.54-2.27V0zM241 27.34c0 .62-.42 1.37-1.66 1.37h-22.79V13.1H241zm0-16.08h-10.62V9.47h9.45a6.59 6.59 0 01-.55-2.88 6.67 6.67 0 01.55-2.89H217.7a6.84 6.84 0 01.54 2.89 6.76 6.76 0 01-.54 2.88h9.49v1.79h-10.64V1.84H241zm-20-5.41h15.66a2.08 2.08 0 00-.11.74 1.87 1.87 0 00.11.71h-15.73a1.87 1.87 0 00.11-.71 2.08 2.08 0 00-.11-.74z" fill="#1a1a1a"/></svg>